<?xml version="1.0" encoding="UTF-8"?>
<svg width="240px" height="168px" viewBox="0 0 240 168" version="1.1" xmlns="http://www.w3.org/2000/svg" xmlns:xlink="http://www.w3.org/1999/xlink">
    <!-- Generator: Sketch 51 (57462) - http://www.bohemiancoding.com/sketch -->
    <title>glogo</title>
    <desc>Created with Sketch.</desc>
    <defs></defs>
    <g id="Page-1" stroke="none" stroke-width="1" fill="none" fill-rule="evenodd">
        <g id="glogo">
            <path d="M48.3478139,118.912502 C46.2215533,121.275013 43.1109595,123.178119 39.0159391,124.621876 C34.9209187,126.065634 30.4322137,126.787501 25.5496893,126.787501 C18.042152,126.787501 12.0440871,124.490649 7.5553147,119.896877 C3.06654235,115.303104 0.664691416,108.911293 0.349689847,100.721252 L0.310314848,95.760002 C0.310314848,90.1162239 1.30780485,85.1878358 3.30281479,80.9746898 C5.29782472,76.7615438 8.15248362,73.5197013 11.8668771,71.249065 C15.5812706,68.9784287 19.879665,67.8431276 24.7621894,67.8431276 C31.9022249,67.8431276 37.4474819,69.4771737 41.3981265,72.745315 C45.3487712,76.0134563 47.6521856,80.8893449 48.3084389,87.3731272 L34.9996892,87.3731272 C34.5271868,84.1706112 33.5034471,81.8868841 31.9284392,80.5218773 C30.3534314,79.1568705 28.1222037,78.4743774 25.2346894,78.4743774 C21.7696721,78.4743774 19.0921989,79.9443626 17.2021895,82.8843773 C15.3121801,85.8243919 14.3540647,90.0243498 14.3278146,95.484377 L14.3278146,98.949377 C14.3278146,104.671905 15.3056173,108.9703 17.261252,111.844689 C19.2168868,114.719079 22.2946684,116.156252 26.4946893,116.156252 C30.0909572,116.156252 32.7684304,115.355635 34.5271892,113.754377 L34.5271892,104.855627 L24.9196894,104.855627 L24.9196894,95.366252 L48.3478139,95.366252 L48.3478139,118.912502 Z M53.5003138,126.000001 L53.5003138,68.6700026 L74.0934384,68.6700026 C81.4697251,68.6700026 87.0806064,70.021864 90.9262505,72.7256275 C94.7718947,75.429391 96.6946879,79.3537266 96.6946879,84.4987523 C96.6946879,87.465017 96.0121948,89.9981166 94.647188,92.0981271 C93.2821812,94.1981376 91.2740763,95.746872 88.6228131,96.744377 C91.615328,97.5318809 93.91218,99.0018662 95.513438,101.154377 C97.1146959,103.306888 97.9153129,105.931861 97.9153129,109.029377 C97.9153129,114.646905 96.1368932,118.86655 92.5800005,121.688439 C89.0231078,124.510328 83.7534731,125.947501 76.7709383,126.000001 L53.5003138,126.000001 Z M67.3209385,101.626877 L67.3209385,115.368752 L76.3771883,115.368752 C78.8709508,115.368752 80.7871816,114.79782 82.1259382,113.655939 C83.4646949,112.514058 84.1340632,110.906262 84.1340632,108.832502 C84.1340632,104.054978 81.758462,101.653127 77.0071883,101.626877 L67.3209385,101.626877 Z M67.3209385,92.5706271 L74.5265634,92.5706271 C77.5453284,92.544377 79.6978068,91.9931325 80.9840632,90.9168771 C82.2703197,89.8406218 82.9134382,88.2525127 82.9134382,86.1525022 C82.9134382,83.7374902 82.2178202,81.9984451 80.8265632,80.9353148 C79.4353063,79.8721845 77.1909538,79.3406274 74.0934384,79.3406274 L67.3209385,79.3406274 L67.3209385,92.5706271 Z M132.205312,110.761877 C132.205312,108.740617 131.490007,107.165632 130.059375,106.036877 C128.628743,104.908121 126.11533,103.740008 122.519062,102.532502 C118.922795,101.324996 115.982824,100.156883 113.699063,99.028127 C106.270276,95.3793588 102.555938,90.365659 102.555938,83.9868773 C102.555938,80.8106114 103.481241,78.008452 105.331875,75.5803149 C107.182509,73.1521778 109.800921,71.2621968 113.187188,69.910315 C116.573454,68.5584333 120.379666,67.8825026 124.605937,67.8825026 C128.727208,67.8825026 132.421858,68.6174952 135.69,70.0875025 C138.958141,71.5575099 141.497803,73.6509264 143.309062,76.3678149 C145.120321,79.0847034 146.025937,82.1887348 146.025937,85.6800022 L132.244687,85.6800022 C132.244687,83.3437406 131.529382,81.5325087 130.09875,80.2462523 C128.668118,78.9599959 126.7322,78.3168774 124.290937,78.3168774 C121.823425,78.3168774 119.874382,78.8615594 118.44375,79.9509398 C117.013118,81.0403203 116.297813,82.4249939 116.297813,84.1050023 C116.297813,85.5750096 117.085305,86.9071837 118.660312,88.1015647 C120.23532,89.2959456 123.004668,90.5296833 126.968437,91.8028146 C130.932207,93.075946 134.187174,94.4474947 136.733437,95.917502 C142.928468,99.4875198 146.025937,104.409345 146.025937,110.683127 C146.025937,115.696902 144.135956,119.634362 140.355937,122.495627 C136.575918,125.356891 131.391595,126.787501 124.802812,126.787501 C120.156539,126.787501 115.950019,125.954072 112.183125,124.287189 C108.416231,122.620306 105.58126,120.336579 103.678125,117.435939 C101.774991,114.5353 100.823438,111.195021 100.823438,107.415002 L114.683438,107.415002 C114.683438,110.486267 115.477492,112.750307 117.065625,114.207189 C118.653758,115.664071 121.232795,116.392502 124.802812,116.392502 C127.086574,116.392502 128.891243,115.900319 130.216875,114.915939 C131.542506,113.931559 132.205312,112.546886 132.205312,110.761877 Z M186.340311,103.162502 L164.054062,103.162502 L164.054062,126.000001 L150.233437,126.000001 L150.233437,68.6700026 L188.584686,68.6700026 L188.584686,79.3406274 L164.054062,79.3406274 L164.054062,92.5312521 L186.340311,92.5312521 L186.340311,103.162502 Z M240.00281,98.516252 C240.00281,104.10753 238.965945,109.055605 236.892185,113.360627 C234.818425,117.665648 231.871892,120.979677 228.052498,123.302814 C224.233104,125.625951 219.88221,126.787501 214.999686,126.787501 C210.117161,126.787501 205.785955,125.665325 202.005936,123.420939 C198.225917,121.176553 195.279384,117.967522 193.166249,113.793752 C191.053113,109.619981 189.944062,104.829404 189.839061,99.421877 L189.839061,96.193127 C189.839061,90.575599 190.869363,85.6209612 192.929999,81.3290648 C194.990634,77.0371684 197.943729,73.7231392 201.789373,71.3868775 C205.635017,69.0506159 210.012161,67.8825026 214.920936,67.8825026 C219.77721,67.8825026 224.108416,69.037491 227.914685,71.3475025 C231.720954,73.657514 234.680612,76.9452936 236.793748,81.2109398 C238.906883,85.4765861 239.97656,90.3655996 240.00281,95.878127 L240.00281,98.516252 Z M225.945935,96.114377 C225.945935,90.4180987 224.994382,86.0934545 223.091248,83.1403148 C221.188113,80.1871751 218.464703,78.7106274 214.920936,78.7106274 C207.990901,78.7106274 204.329063,83.9080753 203.935311,94.3031271 L203.895936,98.516252 C203.895936,104.13378 204.827801,108.451862 206.691561,111.470627 C208.55532,114.489392 211.324667,115.998752 214.999686,115.998752 C218.490953,115.998752 221.181551,114.515641 223.07156,111.549377 C224.96157,108.583112 225.919685,104.31753 225.945935,98.752502 L225.945935,96.114377 Z" id="GBSFO" fill="#293E48"></path>
            <path d="M15.681027,47.453125 L39.5482145,47.453125 L39.5482145,58 L1.97008955,58 L1.97008955,1.125 L15.681027,1.125 L15.681027,47.453125 Z M88.136384,30.734375 C88.136384,36.2812777 87.1077485,41.1900828 85.0504465,45.4609375 C82.9931446,49.7317922 80.0699967,53.0195197 76.2809153,55.3242188 C72.4918339,57.6289178 68.1754708,58.78125 63.3316965,58.78125 C58.4879223,58.78125 54.1910903,57.6679799 50.4410715,55.4414062 C46.6910528,53.2148326 43.7679049,50.0312707 41.6715403,45.890625 C39.5751756,41.7499793 38.4749262,36.9974227 38.370759,31.6328125 L38.370759,28.4296875 C38.370759,22.856743 39.3928842,17.9414275 41.4371653,13.6835938 C43.4814464,9.42575996 46.4111046,6.13803242 50.2262278,3.8203125 C54.041351,1.50259258 58.3837555,0.34375 63.2535715,0.34375 C68.071304,0.34375 72.368136,1.48957187 76.1441965,3.78125 C79.9202571,6.07292813 82.8564256,9.33461426 84.9527903,13.5664062 C87.0491549,17.7981982 88.1103423,22.6484102 88.136384,28.1171875 L88.136384,30.734375 Z M74.1910715,28.3515625 C74.1910715,22.7004926 73.2470706,18.4101709 71.3590403,15.4804688 C69.47101,12.5507666 66.7692141,11.0859375 63.2535715,11.0859375 C56.3785372,11.0859375 52.745761,16.2421359 52.355134,26.5546875 L52.3160715,30.734375 C52.3160715,36.3073195 53.2405415,40.5911309 55.089509,43.5859375 C56.9384766,46.5807441 59.685845,48.078125 63.3316965,48.078125 C66.7952555,48.078125 69.4644997,46.6067855 71.339509,43.6640625 C73.2145184,40.7213395 74.1650298,36.4896109 74.1910715,30.96875 L74.1910715,28.3515625 Z M138.912054,50.96875 C136.802668,53.3125117 133.716761,55.2005137 129.654241,56.6328125 C125.591721,58.0651113 121.13864,58.78125 116.294866,58.78125 C108.846912,58.78125 102.896451,56.502627 98.4433035,51.9453125 C93.9901563,47.387998 91.6073676,41.0469156 91.294866,32.921875 L91.2558035,28 C91.2558035,22.4010137 92.245377,17.5117396 94.2245535,13.3320312 C96.2037301,9.15232285 99.035733,5.93620918 102.720647,3.68359375 C106.405562,1.43097832 110.669842,0.3046875 115.513616,0.3046875 C122.596985,0.3046875 128.098232,1.92576504 132.017522,5.16796875 C135.936813,8.41017246 138.221946,13.2473637 138.872991,19.6796875 L125.669866,19.6796875 C125.201114,16.5025883 124.185499,14.2369859 122.622991,12.8828125 C121.060483,11.5286391 118.846964,10.8515625 115.982366,10.8515625 C112.544849,10.8515625 109.888625,12.3098812 108.013616,15.2265625 C106.138607,18.1432437 105.188095,22.3098687 105.162054,27.7265625 L105.162054,31.1640625 C105.162054,36.8411742 106.132096,41.1054545 108.07221,43.9570312 C110.012324,46.808608 113.065679,48.234375 117.232366,48.234375 C120.800092,48.234375 123.456316,47.4401121 125.201116,45.8515625 L125.201116,37.0234375 L115.669866,37.0234375 L115.669866,27.609375 L138.912054,27.609375 L138.912054,50.96875 Z" id="LOG" fill="#293E48"></path>
            <path d="M156.894082,27 L150.720083,27 L150.720083,1.31616401 L156.894082,1.31616401 L156.894082,27 Z M181.358238,27 L175.201878,27 L166.09964,11.0181625 L166.09964,27 L159.908001,27 L159.908001,1.31616401 L166.09964,1.31616401 L175.184238,17.2980015 L175.184238,1.31616401 L181.358238,1.31616401 L181.358238,27 Z" id="IN" fill="#60CCFF"></path>
            <rect id="Rectangle-3" fill="#60CCFF" fill-rule="nonzero" x="0" y="143" width="108" height="25"></rect>
            <path d="M19.8441804,158.030725 L22.0562282,151.221205 L23.7182534,151.221205 L20.5855154,159.925912 L19.120781,159.925912 L16,151.221205 L17.6560466,151.221205 L19.8441804,158.030725 Z M24.2862116,156.631754 C24.2862116,155.998029 24.411759,155.427087 24.6628576,154.918912 C24.9139562,154.410736 25.2666846,154.020144 25.7210534,153.747124 C26.1754223,153.474104 26.6975401,153.337596 27.2874224,153.337596 C28.1602889,153.337596 28.868735,153.618584 29.4127819,154.180566 C29.9568288,154.742549 30.2507692,155.487862 30.2946118,156.416528 L30.3005903,156.757303 C30.3005903,157.395014 30.1780321,157.964959 29.9329121,158.467156 C29.687792,158.969353 29.3370564,159.357952 28.8806947,159.632965 C28.424333,159.907978 27.8972332,160.045482 27.2993794,160.045482 C26.386656,160.045482 25.656289,159.741578 25.1082564,159.13376 C24.5602238,158.525942 24.2862116,157.715862 24.2862116,156.703496 L24.2862116,156.631754 Z M25.738989,156.757303 C25.738989,157.422913 25.8764933,157.944035 26.151506,158.320683 C26.4265187,158.69733 26.8091394,158.885652 27.2993794,158.885652 C27.7896195,158.885652 28.1712438,158.694341 28.4442637,158.311715 C28.7172835,157.929088 28.8537914,157.369107 28.8537914,156.631754 C28.8537914,155.978101 28.7132979,155.459969 28.4323066,155.077342 C28.1513154,154.694716 27.7696911,154.503405 27.2874224,154.503405 C26.8131251,154.503405 26.4364829,154.691727 26.1574845,155.068374 C25.8784861,155.445022 25.738989,156.007993 25.738989,156.757303 Z M33.3496292,151.884819 L33.3496292,153.457167 L34.4915241,153.457167 L34.4915241,154.533298 L33.3496292,154.533298 L33.3496292,158.144317 C33.3496292,158.39143 33.3984532,158.569787 33.4961026,158.679393 C33.5937521,158.789 33.7681235,158.843802 34.019222,158.843802 C34.1866211,158.843802 34.3560104,158.823874 34.5273952,158.784017 L34.5273952,159.907976 C34.1965828,159.999647 33.8777322,160.045482 33.570834,160.045482 C32.4548403,160.045482 31.8968518,159.429702 31.8968518,158.198123 L31.8968518,154.533298 L30.8326775,154.533298 L30.8326775,153.457167 L31.8968518,153.457167 L31.8968518,151.884819 L33.3496292,151.884819 Z M37.1459815,159.925912 L35.6932042,159.925912 L35.6932042,153.457167 L37.1459815,153.457167 L37.1459815,159.925912 Z M35.6035266,151.777206 C35.6035266,151.554007 35.6742715,151.368675 35.8157636,151.221205 C35.9572556,151.073734 36.1595265,151 36.4225821,151 C36.6856378,151 36.888905,151.073734 37.0323899,151.221205 C37.1758748,151.368675 37.2476162,151.554007 37.2476162,151.777206 C37.2476162,151.996419 37.1758748,152.178762 37.0323899,152.324239 C36.888905,152.469717 36.6856378,152.542455 36.4225821,152.542455 C36.1595265,152.542455 35.9572556,152.469717 35.8157636,152.324239 C35.6742715,152.178762 35.6035266,151.996419 35.6035266,151.777206 Z M40.0754503,153.457167 L40.1172998,154.20448 C40.5955828,153.626555 41.2233199,153.337596 42.0005297,153.337596 C43.3476935,153.337596 44.0332222,154.108816 44.0571364,155.651279 L44.0571364,159.925912 L42.604359,159.925912 L42.604359,155.734978 C42.604359,155.324452 42.5156787,155.020547 42.3383154,154.823256 C42.1609521,154.625964 41.8709974,154.52732 41.4684426,154.52732 C40.8825459,154.52732 40.4461192,154.792364 40.1591494,155.322461 L40.1591494,159.925912 L38.706372,159.925912 L38.706372,153.457167 L40.0754503,153.457167 Z M45.2827304,156.643711 C45.2827304,155.639317 45.5188791,154.837208 45.9911836,154.237362 C46.4634881,153.637515 47.0902287,153.337596 47.8714242,153.337596 C48.6087772,153.337596 49.1886867,153.59467 49.61117,154.108824 L49.6769336,153.457167 L50.9862267,153.457167 L50.9862267,159.728621 C50.9862267,160.577573 50.7221786,161.24716 50.1940745,161.7374 C49.6659703,162.22764 48.9535386,162.472756 48.056758,162.472756 C47.5824607,162.472756 47.119131,162.374112 46.666755,162.17682 C46.2143789,161.979528 45.8706182,161.721459 45.6354624,161.402603 L46.3229908,160.529741 C46.7693882,161.059838 47.3194054,161.324883 47.9730589,161.324883 C48.4553276,161.324883 48.8359554,161.194353 49.1149538,160.93329 C49.3939523,160.672228 49.5334494,160.288611 49.5334494,159.782428 L49.5334494,159.345997 C49.1149517,159.812323 48.5569633,160.045482 47.8594672,160.045482 C47.1021858,160.045482 46.4834165,159.744567 46.0031406,159.142727 C45.5228648,158.540888 45.2827304,157.707891 45.2827304,156.643711 Z M46.7295293,156.76926 C46.7295293,157.418928 46.8620515,157.930085 47.1271,158.302747 C47.3921485,158.675409 47.7598231,158.861738 48.2301347,158.861738 C48.8160314,158.861738 49.2504653,158.610643 49.5334494,158.108446 L49.5334494,155.262676 C49.2584366,154.772436 48.8279884,154.52732 48.2420917,154.52732 C47.7638087,154.52732 47.3921485,154.716637 47.1271,155.095278 C46.8620515,155.473918 46.7295293,156.031907 46.7295293,156.76926 Z M60.2170425,157.683972 C60.2170425,157.301345 60.0825275,157.006408 59.8134933,156.799152 C59.5444591,156.591896 59.0592084,156.382651 58.3577267,156.171409 C57.6562449,155.960167 57.0982564,155.725015 56.6837445,155.465945 C55.8905919,154.967734 55.4940215,154.318076 55.4940215,153.516952 C55.4940215,152.81547 55.7799906,152.237553 56.3519373,151.783185 C56.9238841,151.328816 57.666208,151.101635 58.5789314,151.101635 C59.1847566,151.101635 59.7248097,151.213232 60.199107,151.436431 C60.6734043,151.65963 61.0460609,151.977484 61.3170879,152.390003 C61.588115,152.802522 61.7236265,153.259873 61.7236265,153.762071 L60.2170425,153.762071 C60.2170425,153.307702 60.0745562,152.951984 59.7895792,152.694907 C59.5046023,152.43783 59.0970714,152.309293 58.5669744,152.309293 C58.0727487,152.309293 57.6891316,152.414912 57.4161117,152.626154 C57.1430918,152.837396 57.0065839,153.132332 57.0065839,153.510973 C57.0065839,153.829829 57.1540523,154.095869 57.4489935,154.309104 C57.7439347,154.522338 58.2301818,154.729591 58.9077494,154.930869 C59.5853169,155.132146 60.1293557,155.36132 60.5398819,155.618397 C60.9504082,155.875474 61.2513234,156.170411 61.4426366,156.503216 C61.6339498,156.836022 61.729605,157.225617 61.729605,157.672015 C61.729605,158.39741 61.4516071,158.974331 60.8956031,159.402792 C60.3395992,159.831254 59.5853183,160.045482 58.632738,160.045482 C58.0029987,160.045482 57.4240857,159.928902 56.8959815,159.695739 C56.3678774,159.462576 55.9573573,159.140737 55.664409,158.73021 C55.3714606,158.319684 55.2249886,157.841408 55.2249886,157.295369 L56.7375511,157.295369 C56.7375511,157.789594 56.900962,158.172215 57.2277887,158.443242 C57.5546154,158.714269 58.0229272,158.849781 58.632738,158.849781 C59.1588493,158.849781 59.5544233,158.743165 59.8194718,158.52993 C60.0845203,158.316696 60.2170425,158.034712 60.2170425,157.683972 Z M65.1792039,157.845391 L66.4944756,153.457167 L68.042909,153.457167 L65.4721507,160.906387 C65.0775673,161.994481 64.4079811,162.53852 63.4633722,162.53852 C63.2521305,162.53852 63.0189711,162.502649 62.7638868,162.430907 L62.7638868,161.306947 L63.0388981,161.324883 C63.4055818,161.324883 63.6815868,161.258123 63.8669214,161.124603 C64.0522561,160.991082 64.1987281,160.76689 64.3063418,160.452021 L64.5155895,159.896019 L62.2437566,153.457167 L63.8101256,153.457167 L65.1792039,157.845391 Z M72.5028757,158.168231 C72.5028757,157.909161 72.3962601,157.711872 72.1830256,157.576358 C71.9697911,157.440845 71.6160662,157.321276 71.1218405,157.217648 C70.6276147,157.11402 70.2151018,156.982494 69.8842894,156.823066 C69.1588935,156.472326 68.796201,155.964158 68.796201,155.298547 C68.796201,154.74055 69.0313533,154.274231 69.5016649,153.899576 C69.9719765,153.524921 70.5698213,153.337596 71.2952172,153.337596 C72.0684414,153.337596 72.6931892,153.528907 73.1694793,153.911533 C73.6457695,154.29416 73.883911,154.790371 73.883911,155.400182 L72.4311336,155.400182 C72.4311336,155.121183 72.3275072,154.88902 72.1202512,154.703685 C71.9129953,154.518351 71.6379867,154.425685 71.2952172,154.425685 C70.9763619,154.425685 70.7162994,154.499419 70.5150219,154.64689 C70.3137445,154.79436 70.2131073,154.991649 70.2131073,155.238762 C70.2131073,155.461961 70.3067697,155.635336 70.4940972,155.758892 C70.6814247,155.882449 71.0600597,156.007 71.6300136,156.132549 C72.1999675,156.258098 72.6473547,156.407559 72.9721886,156.580937 C73.2970225,156.754314 73.5381532,156.962564 73.695588,157.205691 C73.8530228,157.448818 73.9317391,157.743755 73.9317391,158.09051 C73.9317391,158.672421 73.6906083,159.143722 73.2083396,159.504427 C72.7260709,159.865132 72.0943483,160.045482 71.3131527,160.045482 C70.7830557,160.045482 70.3107583,159.949827 69.8962464,159.758514 C69.4817345,159.5672 69.1588983,159.304149 68.9277282,158.969351 C68.696558,158.634553 68.5809747,158.273853 68.5809747,157.887241 L69.9919025,157.887241 C70.011831,158.23001 70.141364,158.494058 70.3805055,158.679393 C70.619647,158.864728 70.9365048,158.957394 71.3310882,158.957394 C71.7137146,158.957394 72.0046658,158.884656 72.2039504,158.739178 C72.4032349,158.5937 72.5028757,158.403386 72.5028757,158.168231 Z M77.016649,151.884819 L77.016649,153.457167 L78.158544,153.457167 L78.158544,154.533298 L77.016649,154.533298 L77.016649,158.144317 C77.016649,158.39143 77.065473,158.569787 77.1631224,158.679393 C77.2607719,158.789 77.4351433,158.843802 77.6862419,158.843802 C77.8536409,158.843802 78.0230303,158.823874 78.194415,158.784017 L78.194415,159.907976 C77.8636026,159.999647 77.5447521,160.045482 77.2378538,160.045482 C76.1218601,160.045482 75.5638717,159.429702 75.5638717,158.198123 L75.5638717,154.533298 L74.4996973,154.533298 L74.4996973,153.457167 L75.5638717,153.457167 L75.5638717,151.884819 L77.016649,151.884819 Z M82.116316,160.045482 C81.1956212,160.045482 80.4493117,159.755527 79.8773649,159.175609 C79.3054182,158.595691 79.0194491,157.823475 79.0194491,156.858937 L79.0194491,156.679582 C79.0194491,156.0339 79.1440001,155.45698 79.3931058,154.948804 C79.6422115,154.440629 79.9919507,154.045055 80.4423339,153.762071 C80.892717,153.479086 81.3949067,153.337596 81.9489178,153.337596 C82.8297557,153.337596 83.5103023,153.618584 83.9905782,154.180566 C84.470854,154.742549 84.7109883,155.537682 84.7109883,156.565991 L84.7109883,157.151884 L80.4841834,157.151884 C80.5280261,157.685967 80.7063831,158.108444 81.0192599,158.419328 C81.3321367,158.730212 81.7257178,158.885652 82.2000151,158.885652 C82.8656256,158.885652 83.4076716,158.616621 83.8261692,158.078553 L84.6093537,158.825867 C84.3502838,159.212479 84.0045302,159.512397 83.5720826,159.725632 C83.1396351,159.938866 82.6543844,160.045482 82.116316,160.045482 Z M81.9429393,154.503405 C81.5443701,154.503405 81.2225304,154.642903 80.9774103,154.921901 C80.7322903,155.200899 80.5758542,155.589499 80.5080975,156.08771 L83.2761465,156.08771 L83.2761465,155.980097 C83.244261,155.493842 83.1147279,155.126168 82.8875435,154.877062 C82.6603591,154.627956 82.3454942,154.503405 81.9429393,154.503405 Z M87.204026,153.457167 L87.2458756,154.132738 C87.7002444,153.602641 88.322003,153.337596 89.11117,153.337596 C89.9760651,153.337596 90.5679314,153.668404 90.8867867,154.330029 C91.3570984,153.668404 92.0187133,153.337596 92.8716513,153.337596 C93.5850901,153.337596 94.1161755,153.534885 94.4649236,153.929469 C94.8136716,154.324052 94.9920286,154.905954 95,155.675193 L95,159.925912 L93.5472226,159.925912 L93.5472226,155.717043 C93.5472226,155.306516 93.4575459,155.005601 93.2781898,154.814288 C93.0988337,154.622975 92.8019041,154.52732 92.3873922,154.52732 C92.0565797,154.52732 91.7865532,154.616 91.5773044,154.793363 C91.3680556,154.970726 91.2215836,155.202889 91.1378841,155.489859 L91.1438626,159.925912 L89.6910852,159.925912 L89.6910852,155.669214 C89.6711568,154.907947 89.2825576,154.52732 88.5252762,154.52732 C87.9433652,154.52732 87.5308523,154.764465 87.2877251,155.238762 L87.2877251,159.925912 L85.8349478,159.925912 L85.8349478,153.457167 L87.204026,153.457167 Z" id="Voting-System" fill="#FFFFFF"></path>
        </g>
    </g>
</svg>